<?xml version="1.0" encoding="utf-8"?>
<!-- Generator: Adobe Illustrator 21.1.0, SVG Export Plug-In . SVG Version: 6.00 Build 0)  -->
<svg version="1.1" id="Layer_1" xmlns="http://www.w3.org/2000/svg" xmlns:xlink="http://www.w3.org/1999/xlink" x="0px" y="0px"
	 viewBox="0 0 360.8 535.3" style="enable-background:new 0 0 360.8 535.3;" xml:space="preserve">
<style type="text/css">
	.st0{fill:#ECE8DE;}
	.st1{fill:#FDFEFD;}
	.st2{fill:#CBDFA5;}
	.st3{fill:#FBEED5;}
	.st4{fill:#CBDFA4;}
	.st5{fill:#A8CAEC;}
	.st6{fill:#BAB795;}
	.st7{fill:#E8D9AF;}
	.st8{fill:#DBE9C0;}
	.st9{fill:#CCDFA4;}
	.st10{fill:#F1F1F0;}
	.st11{fill:#78A24D;}
	.st12{fill:#8EB066;}
	.st13{fill:#E2EADA;}
	.st14{fill:#93B46E;}
	.st15{fill:#A5C188;}
	.st16{fill:none;stroke:#FF8020;stroke-width:2;stroke-miterlimit:10;}
	.st17{clip-path:url(#SVGID_2_);fill:#FF8020;}
	.st18{fill:#F5664A;}
</style>
<g>
	<path class="st0" d="M-1-6.8c46,0,92,0,138,0c-3.2,8.6-6.9,16.9-10.9,25.1c-7.3,0.8-10.7,5.6-13.7,11.8
		c-17.5,35.6-35.3,71-53.1,106.4c-1.6,3.1-3.5,6.1-5,9.2c-1.1,2.2-2.4,2.9-4.8,1.7c-4.5-2.4-9.2-4.7-13.7-7.1
		c-12.1-6.3-24.1-12.8-36.7-18C-1,79.2-1,36.2-1-6.8z"/>
	<path class="st1" d="M-1-6.8c0,43,0,86,0.1,129.1c-1.3,6,1.2,9.3,6.9,11.7c6.8,3,13.3,7,19.7,10.8c7.5,4.5,13.1,10.7,15.4,19.4
		c3.6,13.2,7.2,26.3,4.9,40.2c-0.6,3.4,1,5,4,6.3c13.4,5.8,26.8,11.8,40.2,17.7c54.2,24.2,108.5,48.5,162.7,72.7
		c1.1,0.5,2.2,1.7,3.8,0.3c-8.1-27.4-17.2-54.5-26-81.7c-3.8-11.8-9.1-23.4-10.9-35.7c-2.1-14.1-3.4-28.4-4.6-42.6
		c-0.6-7.5,1.8-14.9,5.7-20.9c6.8-10.3,16.8-17.3,28.7-21.2c6.8-2.2,13.7-4.2,20.5-6.3c2.6-0.2,4.9,2.1,7.8,1.6
		c-0.2-2.1-2.2-2.1-2.9-3.2c1-0.7,2.1-1.3,3.1-2c1.3,0.3,2.6,0.6,3.9,0.9h-0.1c0.7,0.7,1.5,1.3,2.2,2c-4.2,5.4-11.1,5.5-16.5,8.6
		l-0.5,0.1c-15,3.1-29.3,7.6-39.2,20.5c-4.8,6.3-7,13.5-6.6,21.3c0.2,5.1,1,10.2,1.6,15.4c1.8,14,2.4,28,7.1,41.6
		c10,29.1,19.2,58.5,28.7,87.7c1.1,3.4,1.5,7.1,3.8,10.7c2.1-5.7,4.9-10.7,4.7-16.5l0.4-0.1c1.8-0.8,1.9-2.6,2.5-4.1
		c6.9-19.1,13.8-38.2,20.7-57.3c17.6-48.7,35.1-97.4,52.6-146.1c3.4-9.4,6.7-18.8,10.2-28.2c1.2-3.3,0.4-4.3-2.9-3.6
		c-4.2,0.9-8.3,1.8-12.4,3.4c-13.7,5.4-23.4,15.4-33,26c-5,5.6-9.5,12-16.4,15.7c0.6-1.7,1.2-3.5,1.9-5.2c1.1-3.5,3.1-6.6,5.1-9.6
		c0.3-0.4,0.7-0.9,1-1.3v0.1c3-1.9,5-4.8,7.3-7.4C318.8,46.5,337,36.2,360,35.2c0,4.3,0,8.7,0,13c-1.4,0.7-1.5,2.1-2,3.3
		c-4.6,12.8-9.3,25.7-13.9,38.5c-16.3,45.2-32.6,90.5-48.9,135.7c-8.8,24.6-17.6,49.2-26.5,73.7c-1.3,3.5-0.3,4.1,3.1,3.4
		c15.9-3.3,31.9-0.9,47.7,0c13.7,0.8,27.1,4.8,40.5,8.3c0,2,0,4,0,6c-26.1-7.3-52.7-10.5-79.9-9.3c-4.4,0.2-8.6,0.8-12.5,2.9
		c-0.2,0.1-0.3,0.1-0.5,0.1c-1.8-0.1-3.2,0.5-4.5,1.8c-3.7,3.8-8.1,7.1-11.1,11.4c-3.4,4.9-6.8,10.3-6.4,16.8
		c0.9,15.7,11.6,25.4,21.8,35.3c0.3,0.3,0.7,0.6,1,0.9c1.8,1.7,3.5,3.5,5.5,5.1c10.7,8.3,19.4,19.2,32.5,24.5
		c12,4.9,23.1,11.8,36.4,13.2c5.9,0.6,11.8,2.1,17.6,3.2c0,2,0,4,0,6c-18.1-3.1-36.3-5.7-52.7-15.1c-7-4-14.6-6.7-20.8-12.5
		c-5.9-5.5-11.8-11.2-18.6-15.7c-0.2-0.1-0.4-0.1-0.5-0.2c-0.4-1.6-1.8-2.3-2.8-3.4c-9.8-10.5-22.2-19.3-24.4-35.1
		c0-0.2-0.5-0.3-1.1-0.7c-3.8,6.4-7.6,12.9-11.3,19.3c-11.1,19.1-22.2,38.2-33.3,57.4c-7,10.7-13.4,21.9-19.4,33.1
		c-13.6,23-27.2,46-41,69.4c1.2,0.3,1.8,0.6,2.4,0.7c18.8,2.5,37.6,4.2,56.6,3.9c24.6-0.4,49.3-0.3,73.9-0.3
		c27.3,0,54.6,0.1,81.9,0.1c3.7,0,7.4,0.1,11.1,0.1c-1.1,2.1-3,0.9-4.5,0.9c-71.8,0.1-143.7,0.1-215.5,0.1c-46.2,0-92.3,0-138.5,0.1
		c-3,0-3.6-0.6-3.6-3.6c0.1-177,0.1-354,0.2-531C-1.9-4.3-3.5-6.3-1-6.8z M-0.9,339.8c0,17.7,0,35.5,0,53.2c0,1.7,0,3.4-0.1,5.2
		c0,33.9,0,67.7,0,101.5c0,11.3,0.1,11,11.1,12.6c20.9,3,41.9,5.4,62.9,7.7c16.5,1.8,33.1,3.4,49.6,5.2c3.4,0.4,5.4-0.7,7.1-3.8
		c4.7-8.5,9.8-16.6,14.6-25c8-14,16.8-27.6,24.1-42c7.2-10.2,13.3-21.1,19-32.2c0.6-0.8,1.3-1.5,1.8-2.4
		c12.9-22,25.3-44.2,38.7-65.8c9.1-14.7,14.6-31.9,28.3-43.6c0.1-0.1,0-0.6,0-1c-1.3-0.6-2.6-1.3-4-1.9
		c-26.4-11.8-52.9-23.5-79.3-35.3c-41.3-18.4-82.7-36.9-123.9-55.4c-3.6-1.6-5.6-1.2-6.5,2.7C40,229.9,33.9,238,25.9,245
		c-1.9,1.6-3.7,3.4-5.2,5.4c-4.4,5.9-10.3,8.7-17.4,9C0.1,259.5-1,260.8-1,264c0.1,24.1,0.1,48.3,0.2,72.4
		C-0.9,337.4-0.9,338.6-0.9,339.8z M-1,136.8C-1,153-1,168-1,183c0,21.8,0.1,43.7-0.1,65.5c0,4.6,1.7,5.1,5.6,4.5
		c4.9-0.7,8.6-2.9,11.6-6.8c2.2-2.9,4.9-5.5,7.6-7.9C34.9,227.9,39,214.8,40.2,200c0.8-10.2-1.8-19.8-3.7-29.5
		c-1.5-7.7-5-14.7-11.8-19C16.7,146.5,8.3,142.1-1,136.8z"/>
	<path class="st2" d="M360,311.2c-13.4-3.5-26.8-7.5-40.5-8.3c-15.8-0.9-31.8-3.3-47.7,0c-3.4,0.7-4.3,0.1-3.1-3.4
		c8.9-24.6,17.7-49.2,26.5-73.7c16.3-45.2,32.6-90.5,48.9-135.7c4.6-12.8,9.2-25.7,13.9-38.5c0.4-1.2,0.6-2.6,2-3.3
		C360,135.9,360,223.5,360,311.2z"/>
	<path class="st3" d="M290.9,82.1c-0.6,1.7-1.2,3.5-1.9,5.2v-0.1c-0.4,0.7-0.7,1.3-1.1,2c-0.3,0.4-0.7,0.7-1,1.1
		c-0.2-0.4-0.3-0.8-0.5-1.2c-0.1,0.4-0.2,0.9-0.4,1.3l0,0c-1.4,0-2.7-0.1-4.1-0.1h0.1c-1.2-1.2-2.1-2.9-4-3.1
		c-0.3-0.3-0.6-0.6-0.9-0.9c-0.4,0-0.7-0.1-1.1-0.1c-0.3-0.3-0.6-0.6-0.9-0.9C255,74,233.9,64.7,213.4,54.4
		c-1.3-0.7-2.8-0.9-4.2-1.3c-0.7-0.3-1.3-0.7-2-1c-0.4-0.3-0.7-0.6-1.1-0.9c-0.7-0.3-1.3-0.7-2-1s-1.3-0.7-2-1s-1.3-0.7-2-1
		s-1.3-0.7-2-1s-1.3-0.7-2-1s-1.3-0.7-2-1s-1.3-0.7-2-1c-0.9-1.8-2.8-2.3-4.4-3.1C177.6,36,167.5,31,157.3,25.9
		c-5.7-2.8-5.7-2.9-2.7-8.7c4.1-8,8.3-15.9,12.5-23.9c44.3,0,88.7,0,133,0c6.7,4.7,14.6,7.2,21.8,10.8c2.9,1.5,3.6,2.9,2,5.8
		c-1.5,2.6-3.2,5.1-2.8,8.4l0,0c-0.8,0.4-1,1.2-1,2l0,0c-2.3,1.6-3.4,4-4.6,6.4c-8.2,16.8-16.3,33.7-24.3,50.6
		C290.3,78.7,289.2,80.4,290.9,82.1z"/>
	<path class="st4" d="M360,423.2c-5.9-1.1-11.7-2.6-17.6-3.2c-13.3-1.4-24.4-8.3-36.4-13.2c-13.1-5.3-21.8-16.2-32.5-24.5
		c-2-1.5-3.7-3.4-5.5-5.1c0-5,0-10,0-15c-0.1-17.1-0.2-34.3-0.3-51.4c3.9-2.1,8.1-2.7,12.5-2.9c27.1-1.3,53.7,2,79.9,9.3
		C360,352.5,360,387.9,360,423.2z"/>
	<path class="st5" d="M175,456.3c6.1-11.3,12.4-22.4,19.5-33.1c1.4,0.6,2.7,1.3,4.1,1.7c13.2,3.3,25.9,7.8,38.3,13.5
		c9.9,4.6,19.7,9.5,30.1,12.8c0.4,0.2,0.7,0.5,1.1,0.7c13.3,4.8,26.7,9.3,39.8,14.4c17.1,6.6,34.7,11.4,52.1,16.9
		c0,15.7,0,31.3,0,47c-3.7,0-7.4-0.1-11.1-0.1c-0.4-0.2-0.8-0.6-1.3-0.7c-11.9-1.1-23.7-2.2-35.6-3.2c-9.8-0.8-9.2-0.9-12.4-9.9
		c-2.4-6.8-3.6-14.7-10.4-19.2s-14.5-7.1-22.1-9.8c-12.6-5.5-25.7-9.6-38.6-13.9C210.7,467.3,192.8,462,175,456.3z"/>
	<path class="st4" d="M360,483.2c-17.4-5.5-35-10.3-52.1-16.9c-13.2-5.1-26.5-9.6-39.8-14.4c-0.1-22-0.1-44-0.2-66
		c6.8,4.5,12.7,10.2,18.6,15.7c6.1,5.7,13.8,8.4,20.8,12.5c16.4,9.4,34.6,12,52.7,15.1C360,447.2,360,465.2,360,483.2z"/>
	<path class="st2" d="M360,35.2c-23,1-41.1,11.3-55.7,28.7c-2.2,2.7-4.3,5.5-7.3,7.4c-0.3-1.9,0.7-3.5,1.5-5.2
		c6.5-13.4,13.1-26.9,19.6-40.3c0.9-1.8,2-3.5,1.8-5.6l0,0c0.8-0.4,1-1.2,1-2l0,0c1.4-0.6,2.3-1.7,3-2.9c10.9-7.5,23-10.1,36-9
		C360,15.9,360,25.5,360,35.2z"/>
	<path class="st0" d="M360,6.2c-13-1-25.2,1.5-36,9c-0.1-1.5,0.5-2.9,1.1-4.2c2.8-6.2,2.7-6.1-3.6-8.8c-6-2.6-12-5.3-17.5-9
		c17.7,0,35.3,0.1,53-0.1c2.5,0,3.3,0.5,3.1,3.1C359.8-0.5,360,2.9,360,6.2z"/>
	<path class="st0" d="M139-6.8c8.7,0,17.3,0,26,0c-5,9.7-10,19.4-15,29.1c-2.3-1-4.6-1.9-6.8-3.1c-4.2-2.3-8.3-4.2-13.2-2.1
		c0.5-3.1,2.2-5.8,3.3-8.7C135.2,3.3,138.4-1.3,139-6.8z"/>
	<path class="st6" d="M139-6.8c-0.5,5.6-3.8,10.1-5.7,15.1c-1.1,2.9-2.8,5.6-3.3,8.7c-1.4,1.1-1.7,2.8-2.3,4.3
		c-4.1,10.4-3,13.4,7.3,17.4c28.4,10.9,56.8,21.6,85.2,32.4c15.5,5.9,31.1,11.5,46.7,17.3c0.3,0.2,0.6,0.5,0.9,0.7
		c2.3,1,4.6,2,7.1,2.2c0.7,1.2,2.7,1.2,2.9,3.2c-2.9,0.5-5.2-1.7-7.8-1.6c-0.9-0.5-1.7-1.1-2.6-1.5c-24.8-9.4-49.7-18.8-74.5-28.2
		C172,55.3,151,47.3,130.1,39.3c-6.4-2.5-8.8-8-6.5-14.5c0.8-2.2,1.6-4.4,2.3-6.6c4-8.2,7.8-16.6,10.9-25.1
		C137.6-6.8,138.3-6.8,139-6.8z"/>
	<path class="st7" d="M149.9,22.3c5-9.7,10-19.4,15-29.1c0.7,0,1.3,0,2,0c-4.2,8-8.4,15.9-12.5,23.9c-3,5.9-3,5.9,2.7,8.7
		c10.1,5.1,20.3,10.1,30.4,15.2c1.6,0.8,3.5,1.3,4.4,3.1l-0.1,0.2c-0.8-0.2-1.7-0.1-2.4-0.5c-12.4-6.2-24.8-12.4-37.3-18.6
		C150.9,24.6,150,23.8,149.9,22.3z"/>
	<path class="st7" d="M304-6.8c5.5,3.7,11.5,6.4,17.5,9c6.3,2.7,6.4,2.7,3.6,8.8c-0.6,1.4-1.2,2.7-1.1,4.2c-0.7,1.3-1.6,2.3-3,2.9
		c-0.4-3.2,1.4-5.8,2.8-8.4c1.6-2.9,0.9-4.3-2-5.8c-7.2-3.7-15.1-6.1-21.8-10.8C301.3-6.8,302.6-6.8,304-6.8z"/>
	<path class="st4" d="M126,18.3c-0.8,2.2-1.6,4.4-2.3,6.6c-2.3,6.5,0.1,12,6.5,14.5c20.9,8,41.9,16,62.8,23.9
		c24.8,9.4,49.7,18.8,74.5,28.2c0.9,0.3,1.7,1,2.6,1.5c-6.8,2.1-13.7,4.1-20.5,6.3c-11.9,3.9-22,10.9-28.7,21.2
		c-3.9,5.9-6.4,13.4-5.7,20.9c1.2,14.2,2.5,28.5,4.6,42.6c1.8,12.4,7,23.9,10.9,35.7c8.8,27.2,17.9,54.3,26,81.7
		c-1.5,1.4-2.7,0.2-3.8-0.3c-54.2-24.2-108.5-48.5-162.7-72.7c-13.4-6-26.7-11.9-40.2-17.7c-3-1.3-4.6-2.9-4-6.3
		c2.2-13.9-1.4-27-4.9-40.2c-2.4-8.7-7.9-14.9-15.4-19.4c-6.5-3.8-13-7.8-19.8-10.8c-5.6-2.4-8.1-5.7-6.9-11.7
		c12.6,5.2,24.6,11.7,36.7,18c4.6,2.4,9.2,4.7,13.7,7.1c2.3,1.2,3.6,0.5,4.8-1.7c1.6-3.1,3.5-6.1,5-9.2
		C77,101.1,94.8,65.7,112.3,30.2C115.4,23.9,118.7,19.1,126,18.3z"/>
	<path class="st2" d="M-0.9,393.1c0-17.7,0-35.5,0-53.2c1.8,0.1,4.1,2.8,5.2,0.3c1-2.4-2.4-2.4-3.8-3.5c-0.4-0.3-0.9-0.3-1.4-0.5
		c0-24.1,0-48.3-0.2-72.4c0-3.2,1.1-4.5,4.3-4.6c7.2-0.2,13.1-3,17.4-9c1.5-2,3.3-3.7,5.2-5.4c8-6.9,14-15,16.6-25.5
		c0.9-3.8,2.9-4.3,6.5-2.7c41.3,18.6,82.6,37,123.9,55.4c26.4,11.8,52.9,23.6,79.3,35.3c1.4,0.6,2.7,1.3,4,1.9c0,0.4,0.2,0.9,0,1
		c-13.7,11.8-19.2,28.9-28.3,43.6c-13.4,21.6-25.8,43.9-38.7,65.8c-0.5,0.8-1.2,1.6-1.8,2.4c-6-2.8-6.1-2.7-8.4,3.3
		c-1,2.6-2.2,5.1-3.1,7.8c-2.3,7.1-6.6,13.5-7.5,21.1c-7.3,14.4-16.1,28-24.1,42c-4.8,8.4-9.9,16.6-14.6,25
		c-1.7,3.1-3.7,4.2-7.1,3.8c-16.5-1.8-33.1-3.4-49.6-5.2c-21-2.3-42-4.7-62.9-7.7c-11-1.4-11-1-11-12.4c0-33.8,0.1-67.7,0.1-101.5
		c1.8-0.2,3.2,0.7,4.7,1.4c7.5,3.6,15,7.1,22.5,10.8c30.3,14.6,60.5,29.3,90.8,43.8c10.9,5.3,22,10.2,32.9,15.6
		c2.9,1.4,4.1,0.8,5.2-1.9c2-4.7,4.3-9.4,6.5-14c11.6-24,23.2-47.9,34.9-71.8c0.7-1.5,1.6-2.9,1.4-4.7c0.5-0.2,1.1-0.4,1.6-0.6
		c3.3,2.2,6.7,2.2,9.8,0.1c3.3-2.3,4.8-15.2,1.9-18.1c-2.1-2.1-1.9-3.7-0.7-6c3.3-6.5,6.1-13.3,9.6-19.8c2.1-4,1.9-6.1-2.5-8
		c-6.6-2.8-13-6-19.4-9.1c-32.3-15.6-64.7-31.3-97-47c-10-4.8-20.3-9.3-30.2-14.3c-4-2-5.2-0.4-6.6,2.8
		C56.1,275,47.6,292.5,39.2,310c-4.5,9.3-8.8,18.7-13.2,28C17,356.3,8,374.7-0.9,393.1z"/>
	<path class="st2" d="M286.9,90.2c0.3-0.4,0.7-0.7,1-1.1c0.8-0.4,1.2-1,1.1-2v0.1c6.9-3.7,11.3-10.1,16.4-15.7
		c9.5-10.6,19.3-20.6,33-26c4.1-1.6,8.2-2.5,12.4-3.4c3.3-0.7,4.2,0.3,2.9,3.6c-3.5,9.4-6.8,18.8-10.2,28.2
		c-17.5,48.7-35.1,97.4-52.6,146.1c-6.9,19.1-13.8,38.2-20.7,57.3c-0.5,1.5-0.7,3.3-2.5,4.1c0.1-1.3,0.2-2.7,0.2-4
		c0-57.4,0-114.8,0-172.2c0-1.5-0.2-3-0.3-4.5c5.4-3.1,12.3-3.2,16.5-8.6c1.2-0.1,1.9-0.7,1.9-1.9l0,0
		C286.4,90.3,286.6,90.3,286.9,90.2z"/>
	<path class="st4" d="M175,456.3c17.8,5.6,35.7,11,53.3,17c13,4.4,26.1,8.4,38.6,13.9c0,14.2,0,28.4,0,42.7
		c-24.6,0.1-49.3-0.1-73.9,0.3c-19,0.3-37.8-1.5-56.6-3.9c-0.6-0.1-1.2-0.3-2.4-0.7C147.8,502.4,161.4,479.3,175,456.3z"/>
	<path class="st2" d="M267.3,281.6c0.2,5.9-2.6,10.8-4.7,16.5c-2.3-3.6-2.7-7.3-3.8-10.7c-9.5-29.3-18.7-58.6-28.7-87.7
		c-4.7-13.6-5.4-27.6-7.1-41.6c-0.6-5.1-1.4-10.2-1.6-15.4c-0.3-7.8,1.8-15,6.6-21.3c9.9-12.9,24.2-17.4,39.2-20.5
		c-0.1,1.2-0.2,2.3-0.2,3.5c0,57.6,0,115.1,0,172.7C267,278.6,267.2,280.1,267.3,281.6z"/>
	<path class="st2" d="M266.9,451.2c-10.4-3.4-20.2-8.2-30.1-12.8c-12.4-5.8-25.1-10.2-38.3-13.5c-1.4-0.4-2.7-1.1-4.1-1.7
		c11.1-19.1,22.2-38.2,33.3-57.4c3.7-6.4,7.5-12.8,11.3-19.3c0.6,0.4,1.1,0.6,1.1,0.7c2.2,15.8,14.5,24.6,24.4,35.1
		c1,1.1,2.4,1.8,2.8,3.4c-0.1,2.2-0.3,4.3-0.3,6.5C266.9,411.9,266.9,431.6,266.9,451.2z"/>
	<path class="st2" d="M-1,136.8c9.3,5.3,17.7,9.7,25.7,14.7c6.8,4.3,10.3,11.2,11.8,19c1.9,9.7,4.5,19.3,3.7,29.5
		c-1.2,14.8-5.3,27.9-16.5,38.2c-2.7,2.5-5.3,5.1-7.6,7.9c-3,3.9-6.7,6.1-11.6,6.8c-4,0.6-5.7,0.1-5.6-4.5C-0.9,226.6-1,204.8-1,183
		C-1,168-1,153-1,136.8z"/>
	<path class="st8" d="M-0.9,393.1C8,374.7,17,356.3,25.9,337.9c4.5-9.3,8.8-18.7,13.2-28c8.4-17.6,16.9-35.1,25.3-52.6
		c1.5-3.1,2.7-4.8,6.6-2.8c9.9,5,20.2,9.5,30.2,14.3c32.4,15.6,64.7,31.3,97,47c6.4,3.1,12.8,6.4,19.4,9.1c4.4,1.9,4.7,4,2.5,8
		c-3.5,6.4-6.3,13.2-9.6,19.8c-1.2,2.4-1.4,3.9,0.7,6c2.9,2.9,1.4,15.8-1.9,18.1c-3.1,2.1-6.6,2.1-9.8,0c0.3-0.7,0.5-1.3,0.8-2
		c2,1.5,4.3,1.5,6.6,0.9c0.9-0.2,1.2-1.1,1-1.9s-0.8-0.8-1.5-0.5c-5.5,2.4-4.4-1.4-4.1-4.4c0.1-1.1,1-2.1-0.5-2.9
		c5.2-10.9,10.2-22,15.7-32.8c1.9-3.7,1.4-5.2-2.3-6.9c-21.8-10.2-43.5-20.6-65.2-31c-14.8-7.1-29.5-14.5-44.3-21.7
		c-11.5-5.5-23.1-10.8-34.7-16.4c-2.6-1.3-3.4-0.7-4.7,1.9c-14.1,29.5-28.4,59-42.6,88.4C16.7,362,10,376.7,2.8,391
		c-2,4-0.9,5.2,2.6,6.9c22.5,10.6,45,21.4,67.4,32.1c25.2,12,50.4,24,75.4,36.3c3.5,1.7,4.7,1,6.2-2.2c5.2-11.5,10.6-22.9,16.1-34.3
		c7.6-15.7,15.3-31.4,23.1-47c1.3-2.6,1.4-5.9,4.3-8.2c0,1.2,0,1.9,0,2.6c0.2,1.8-0.7,3.2-1.4,4.7c-11.6,23.9-23.3,47.9-34.9,71.8
		c-2.2,4.6-4.5,9.3-6.5,14c-1.2,2.7-2.4,3.3-5.2,1.9c-10.9-5.4-22-10.3-32.9-15.6c-30.3-14.6-60.5-29.2-90.8-43.8
		c-7.5-3.6-15-7.2-22.5-10.8c-1.5-0.7-2.9-1.6-4.7-1.4C-0.9,396.5-0.9,394.8-0.9,393.1z M210.9,363.4c-0.2-1.1,0.5-3-1-2.8
		c-2.4,0.4-1.7,3.2-2.5,4.9c-0.4,0.8,0.4,2.7,1.6,2.4C211,367.3,210.4,364.9,210.9,363.4z M208,370c-0.1,0.5-0.3,0.9-0.3,1.3
		c0.1,0.4,0.4,1.1,0.9,0.4c0.2-0.3,0.2-0.9,0.2-1.3C208.9,370.3,208.5,370.2,208,370z"/>
	<path class="st2" d="M267,529.9c0-14.2,0-28.4,0-42.7c7.6,2.7,15.3,5.3,22.1,9.8c6.8,4.5,8,12.4,10.4,19.2c3.2,9,2.6,9.1,12.4,9.9
		c11.9,0.9,23.7,2.1,35.6,3.2c0.4,0,0.9,0.4,1.3,0.7C321.5,530,294.2,530,267,529.9z"/>
	<path class="st2" d="M267,376.3c-10.3-9.9-20.9-19.6-21.8-35.3c-0.4-6.5,3-11.9,6.4-16.8c3-4.3,7.3-7.7,11.1-11.4
		c1.2-1.3,2.7-1.9,4.5-1.8C267.1,332.7,267,354.5,267,376.3z"/>
	<path class="st8" d="M267.3,281.6c-0.1-1.5-0.3-3-0.3-4.5c0-57.6,0-115.1,0-172.7c0-1.2,0.1-2.3,0.2-3.5l0.5-0.1
		c0.1,1.5,0.3,3,0.3,4.5c0,57.4,0,114.8,0,172.2c0,1.3-0.1,2.7-0.2,4C267.7,281.5,267.3,281.6,267.3,281.6z"/>
	<path class="st5" d="M168.4,454.4c1-7.6,5.2-14,7.5-21.1c0.9-2.6,2.1-5.2,3.1-7.8c2.3-6.1,2.4-6.1,8.4-3.3
		C181.7,433.3,175.6,444.2,168.4,454.4z"/>
	<path class="st7" d="M319.9,20.2c0.2,2.1-0.9,3.8-1.8,5.6c-6.5,13.4-13.1,26.9-19.6,40.3c-0.8,1.6-1.8,3.2-1.5,5.2v-0.1
		c-0.3,0.4-0.7,0.9-1,1.3c-2,3-4,6.1-5.1,9.6c-1.7-1.7-0.6-3.4,0.1-5c8.1-16.9,16.2-33.7,24.3-50.6
		C316.5,24.2,317.6,21.7,319.9,20.2z"/>
	<path class="st8" d="M266.9,451.2c0-19.6,0-39.3,0-58.9c0-2.2,0.2-4.3,0.3-6.5c0.2,0.1,0.4,0.1,0.5,0.2c0.1,22,0.1,44,0.2,66
		C267.7,451.7,267.3,451.5,266.9,451.2z"/>
	<path class="st8" d="M267,376.3c0.1-21.8,0.1-43.5,0.2-65.3c0.2,0,0.3-0.1,0.5-0.1c0.1,17.1,0.2,34.3,0.3,51.4c0,5,0,10,0,15
		C267.6,376.9,267.3,376.6,267,376.3z"/>
	<path class="st9" d="M275,91.3c-2.6-0.2-4.8-1.2-7.1-2.2c-0.3-3.9,0.6-5.8,4.7-3.2c0.6,0.4,1.6,0.2,2.4,0.3c0.4,0.8,1.2,1,2,1
		c0.4,0.7,0.8,1.4,1.2,2.1C277.1,90,276,90.7,275,91.3z"/>
	<path class="st5" d="M-0.9,336.2c0.5,0.1,1,0.2,1.4,0.5c1.4,1.1,4.8,1.1,3.8,3.5c-1.1,2.5-3.4-0.2-5.2-0.3
		C-0.9,338.6-0.9,337.4-0.9,336.2z"/>
	<path class="st7" d="M278.1,89.4c-0.4-0.7-0.8-1.4-1.2-2.1l0,0c0.3,0,0.7,0,1,0c2,0.2,2.8,1.9,4,3.1
		C280.7,89.9,279.4,89.7,278.1,89.4z"/>
	<path class="st7" d="M286,90.3c-0.1,1.2-0.8,1.8-1.9,1.9c-0.7-0.7-1.5-1.3-2.2-2C283.3,90.2,284.7,90.3,286,90.3z"/>
	<path class="st2" d="M296,72.5c0.3-0.4,0.7-0.9,1-1.3C296.7,71.6,296.3,72.1,296,72.5z"/>
	<path class="st7" d="M274.9,86.2c-0.8-0.1-1.8,0-2.4-0.3c-4.1-2.5-5.1-0.6-4.7,3.2c-0.3-0.2-0.6-0.5-0.9-0.7c0.8-4.1-1-6.6-4.8-8.1
		c-3.1-1.2-6-2.8-9-4.2c-15-7.1-29.8-14.7-44.2-22.9L209,53c1.4,0.4,2.9,0.7,4.2,1.3c20.7,10.4,41.8,19.6,61.8,31
		C275,85.6,275,85.9,274.9,86.2L274.9,86.2z"/>
	<path class="st7" d="M207.1,52c0.7,0.3,1.3,0.7,2,1l-0.1,0.2c-0.7-0.3-1.3-0.7-2-1L207.1,52z"/>
	<path class="st7" d="M320.9,18.2c0,0.8-0.2,1.6-1,2C319.9,19.3,320.2,18.6,320.9,18.2z"/>
	<path class="st7" d="M204,50.1c0.7,0.3,1.3,0.7,2,1l-0.2,0.2c-0.7-0.3-1.3-0.7-2-1L204,50.1z"/>
	<path class="st7" d="M202,49.1c0.7,0.3,1.3,0.7,2,1l-0.1,0.2c-0.7-0.3-1.3-0.7-2-1L202,49.1z"/>
	<path class="st7" d="M276.9,87.2c-0.8,0-1.6-0.2-2-1l0,0c0.3,0,0.6,0,1,0s0.7,0.1,1.1,0.1C277,86.6,277,86.9,276.9,87.2L276.9,87.2
		z"/>
	<path class="st1" d="M289,87.2c0.2,0.9-0.2,1.6-1.1,2C288.3,88.5,288.7,87.9,289,87.2z"/>
	<path class="st7" d="M286.9,90.2c-0.3,0.1-0.6,0.1-0.9,0.1c0.1-0.4,0.2-0.9,0.4-1.3C286.6,89.4,286.8,89.8,286.9,90.2z"/>
	<path class="st7" d="M200,48.1c0.7,0.3,1.3,0.7,2,1l-0.1,0.2c-0.7-0.3-1.3-0.7-2-1L200,48.1z"/>
	<path class="st7" d="M198,47.1c0.7,0.3,1.3,0.7,2,1l-0.1,0.2c-0.7-0.3-1.3-0.7-2-1L198,47.1z"/>
	<path class="st7" d="M196,46.1c0.7,0.3,1.3,0.7,2,1l-0.1,0.2c-0.7-0.3-1.3-0.7-2-1L196,46.1z"/>
	<path class="st7" d="M194,45.1c0.7,0.3,1.3,0.7,2,1l-0.1,0.2c-0.7-0.3-1.3-0.7-2-1L194,45.1z"/>
	<path class="st7" d="M192,44.1c0.7,0.3,1.3,0.7,2,1l-0.1,0.2c-0.7-0.3-1.3-0.7-2-1L192,44.1z"/>
	<path class="st9" d="M276,86.2c-0.3,0-0.6,0-1,0c0-0.3,0-0.6,0-0.9C275.3,85.6,275.6,85.9,276,86.2z"/>
	<path class="st9" d="M277,87.2c0-0.3,0-0.6,0-0.9c0.3,0.3,0.6,0.6,0.9,0.9C277.6,87.2,277.3,87.2,277,87.2z"/>
	<path class="st7" d="M206,51.1c0.4,0.3,0.7,0.6,1.1,0.9l-0.1,0.2c-0.4-0.3-0.7-0.6-1.1-0.9L206,51.1z"/>
	<path class="st9" d="M205.9,51.3c0.4,0.3,0.7,0.6,1.1,0.9c0.7,0.3,1.3,0.7,2,1c14.4,8.2,29.2,15.7,44.2,22.9c3,1.4,6,3,9,4.2
		c3.8,1.5,5.6,4,4.8,8.1c-15.6-5.8-31.2-11.4-46.7-17.3c-28.4-10.7-56.8-21.5-85.2-32.4c-10.3-4-11.4-6.9-7.3-17.4
		c0.6-1.5,0.9-3.2,2.3-4.3c4.8-2.1,9-0.2,13.2,2.1c2.2,1.2,4.5,2.1,6.8,3.1c0.1,1.5,1,2.3,2.3,3c12.4,6.2,24.8,12.4,37.3,18.6
		c0.7,0.4,1.6,0.3,2.4,0.5c0.7,0.3,1.3,0.7,2,1s1.3,0.7,2,1s1.3,0.7,2,1s1.3,0.7,2,1s1.3,0.7,2,1s1.3,0.7,2,1
		C204.5,50.7,205.2,51,205.9,51.3z"/>
	<path class="st10" d="M198,377.3c0-0.7,0-1.3,0-2.6c-3,2.4-3,5.6-4.3,8.2c-7.8,15.6-15.5,31.3-23.1,47
		c-5.5,11.4-10.8,22.8-16.1,34.3c-1.5,3.2-2.7,3.9-6.2,2.2c-25.1-12.3-50.2-24.3-75.4-36.3C50.4,419.4,28,408.6,5.4,398
		c-3.5-1.6-4.6-2.9-2.6-6.9c7.2-14.4,14-29,20.9-43.5c14.2-29.5,28.5-58.9,42.6-88.4c1.3-2.6,2.1-3.2,4.7-1.9
		c11.5,5.5,23.1,10.8,34.7,16.4c14.8,7.1,29.5,14.5,44.3,21.7c21.7,10.4,43.4,20.8,65.2,31c3.7,1.7,4.2,3.2,2.3,6.9
		c-5.5,10.8-10.5,21.8-15.7,32.8c-3.4,2.4-2.3,5.6-1.5,8.8c-0.3,0.7-0.5,1.4-0.8,2C199.1,376.9,198.5,377.1,198,377.3z M154.5,375.5
		l0.3,0.1l0.3-0.2c0.9-0.5,1.8-0.9,2.7-1.4c0.8,0,1.6,0,2.4,0c1.9,3.4,5.1,1.6,7.8,1.9c0.6,1.1,1.4,1.9,2.5,2.3
		c-0.2,0.8-0.4,1.7,0.8,1.9c1.5,0.3,2.5-0.3,3.1-1.7c1.2-2.1,2.5-4.2,3.5-6.4c0.5-1.2,2.5-2.6,0.8-3.9c-1.5-1.3-1.7,2.3-3.5,1.4
		c-0.2-1.4-0.5-2.7-0.7-4c-0.4-1.1-1.3-1.3-2.3-1.3c-0.9,0.4-1.8,0.9-2.7,1.3c-0.8-0.4-1.7-0.8-2.5-1.2c-0.7-0.4-1.4-0.4-2.1-0.1
		c-0.5,0.1-1,0.2-1.4,0.2c-1.2-0.1-2.5-0.2-3.7-0.3c-0.1-0.2-0.1-0.5,0-0.7c-0.3-1.8-0.8-3.3-3-3.2c-5.1-0.8-8.3,0.5-8,6.5
		c0.1,1.8-0.5,3.6-0.8,5.3c-0.1,0.2-0.2,0.5-0.1,0.8c0,0.5,0,1.1-0.1,1.6c-0.1,0.3,0,0.5,0.2,0.6C150,376.8,152.3,376.1,154.5,375.5
		z M98,379.3v-0.1c2.1-0.3,2.1-4,4.9-3.1c6.5,0.3,10.4-4.5,8.6-10.5c-0.5-1.7-1.4-0.9-2.1-0.1c-3.2-0.3-6-4.1-9.7-1.3
		c-2.9,0.5-6.3-1.3-8.6,1.9c-1.1-2.3-1.6-5-4.7-5.7c-3.4-0.4-6.5,0-7.6,3.8c-0.8,2.8,1.6,4,3.6,5.2c1.2,0.8,3.8,0.9,2.2,3.3
		c-1.4,2-3.1,1.4-4.5-0.3c-0.7-0.8-1.5-1.6-2.4-0.6c-1,1.1-0.1,2.3,0.7,3c2.7,2.2,5.5,1.5,8.4,0.3c1.4,0,2.7,0,4.1,0
		c1,0.4,1.9,0.9,2.9,1.3c0.2,1,0.7,1.6,1.8,1.8c0.1,0.5,0.1,0.9,0.2,1.4C96.8,381.4,97.5,381.1,98,379.3z M192.5,373.8
		c0.8,3.1,1.6,2.4,2.6,0c0.9-2.1,0.1-4.8,2-6.5c0.9-0.7,3.2-1,1.6-2.5c-1.1-1.1-3.4-1.3-4.7,0.7c-0.5,0.8-0.7,1.9-1,2.8
		c-0.7-0.1-1.3-0.2-2-0.2c-1.5-4.5-4-5.2-7.7-2.3c-2,1.5,0.3,3.6-0.6,5.3c-2.1,1.2-2.5,2.7-0.3,4.1c2.7,1.8,5.5,2.2,7.6-1
		C190.9,374.1,191.7,373.9,192.5,373.8z M140,373.2c0.8-0.5,0.9-1.3,0.9-2.2c1-1.6,0.9-3.1-0.1-4.6c-1.2-1.7-13.3-2.9-14.9-1.5
		c-1,0.9-0.7,2.1-0.9,3.2c-0.3,1.5,0.2,3.4-1.9,4.1c-0.4-3.4-1.5-6.3-4.8-8.1c-1.2,1.5-1,3.8-2.9,5c-2.1,1.4-3.6,3.5-1.9,5.8
		c1.9,2.6,4.9,1.1,7.4,0.7c1.7-0.3,0.5-2.9,2.3-3.5c0.9,1-0.4,3.5,1.9,3.5c2.1,0,1.7-2,2-3.4c0.2-1,0.3-2,0.6-2.9
		c0.4-1.3,1.2-2.3,2.9-2c2.3,0.4,1.1,1.7,0.8,2.9c-0.6,3,0.7,5.4,3.7,6.1C137.3,376.8,139.7,376.6,140,373.2z"/>
	<path class="st11" d="M200.4,374.7c-0.8-3.1-1.8-6.3,1.5-8.8c1.5,0.7,0.7,1.8,0.5,2.9c-0.4,2.9-1.4,6.8,4.1,4.4
		c0.7-0.3,1.3-0.3,1.5,0.5c0.2,0.9-0.1,1.7-1,1.9C204.6,376.2,202.4,376.2,200.4,374.7z"/>
	<path class="st12" d="M210.9,363.4c-0.6,1.5,0.1,3.9-2,4.5c-1.2,0.4-2-1.6-1.6-2.4c0.8-1.7,0.1-4.5,2.5-4.9
		C211.5,360.4,210.8,362.3,210.9,363.4z"/>
	<path class="st11" d="M208,370c0.4,0.2,0.9,0.3,0.9,0.4c0,0.4,0,1-0.2,1.3c-0.5,0.7-0.9,0-0.9-0.4C207.7,371,207.9,370.5,208,370z"
		/>
	<path class="st13" d="M86.6,360.4c3.1,0.7,3.5,3.4,4.7,5.7c-1,1.4-0.5,3.8,0.6,2.8c2.5-2.1,6.7-1,8-4.7c3.7-2.8,6.4,1,9.7,1.3
		c-0.1,2.5-0.8,4.9-1.9,7.1c-0.4,0.9-1.3,1.6-2.4,1.4c-1.4-0.3-1.1-1.4-1.1-2.3c0-1.7,0.1-3.4-1-5.8c-1.7,4-2.1,7.1-0.2,10.3
		c-2.8-0.9-2.9,2.7-4.9,3.1c0-5,0-4.9-4.4-5.2c-0.6,0-1.2-0.8-1.7-0.7c-1.2,0.1-0.9,1.1-0.9,1.9c-1.4,0-2.7,0-4.1,0
		c1.9-3.5,1.4-6.2-2.5-7.9c-1.1-0.5-2.8-0.8-2.5-2.6c0.4-1.8,1.7-1.9,3.4-1.7C87.6,363.3,86.9,361.7,86.6,360.4z"/>
	<path class="st14" d="M123,372.2c2.1-0.7,1.6-2.6,1.9-4.1c0.2-1.1,0-2.3,0.9-3.2c1.5-1.4,13.7-0.1,14.9,1.5c1,1.5,1.1,3.1,0.1,4.6
		c-1,0.1-2,0-2.9,0.2c-1.2,0.3-3.6-0.8-3.4,1.4c0.3,2.3,2.4,1.3,3.9,0.8c0.5-0.1,0.9-0.2,1.4-0.3c-0.2,3.4-2.7,3.6-5,3
		c-3-0.7-4.2-3.1-3.7-6.1c0.2-1.2,1.5-2.5-0.8-2.9c-1.7-0.3-2.5,0.7-2.9,2c-0.3,0.9-0.4,1.9-0.6,2.9c-0.3,1.4,0.2,3.4-2,3.4
		C122.7,375.6,124,373.2,123,372.2L123,372.2z"/>
	<path class="st12" d="M123.1,372.1c-1.7,0.5-0.5,3.2-2.3,3.5c-2.5,0.4-5.4,2-7.4-0.7c-1.7-2.3-0.2-4.5,1.9-5.8
		c1.9-1.2,1.6-3.5,2.9-5C121.5,365.9,122.6,368.8,123.1,372.1C123,372.2,123.1,372.1,123.1,372.1z"/>
	<path class="st14" d="M147.9,372.2c0.3-1.8,0.9-3.6,0.8-5.3c-0.4-6,2.9-7.3,8-6.5c0.3,1.3,0.4,2.3-1.6,1.9s-3.5,0.9-3,2.8
		c0.6,2.4,2.5,1.3,4,0.7c0.6-0.2,1.3-0.4,1.9-0.6c-0.5,3,1.3,6-0.2,8.9c-0.9,0.5-1.8,0.9-2.7,1.4c-0.1-0.6-0.2-1.3-0.3-1.9
		c0.3-1.3,1.8-2.6,0-4c-0.9-0.7-1.9-0.9-2.8-0.4c-1.9,1.2-1.3,3.1-0.9,4.8C149.5,374.4,149.1,372.6,147.9,372.2z"/>
	<path class="st12" d="M86.6,360.4c0.3,1.3,1,2.9-1.3,2.7c-1.7-0.2-3-0.1-3.4,1.7c-0.3,1.7,1.4,2.1,2.5,2.6c3.9,1.7,4.5,4.3,2.5,7.9
		c-2.8,1.2-5.7,2-8.4-0.3c-0.9-0.7-1.8-1.8-0.7-3c0.9-1,1.7-0.2,2.4,0.6c1.4,1.7,3.2,2.3,4.5,0.3c1.7-2.4-1-2.5-2.2-3.3
		c-2-1.2-4.3-2.4-3.6-5.2C80.1,360.4,83.3,360.1,86.6,360.4z"/>
	<path class="st11" d="M190.1,374.2c-2.2,3.1-4.9,2.7-7.6,1c-2.2-1.4-1.7-2.9,0.3-4.1c1.5,0.4,2.7,2.2,4.4,1.2
		c1.3-0.9,1.2-2.8,0.9-4c-0.5-2.3-3.6-0.4-4.7-2.4c3.7-2.9,6.3-2.2,7.7,2.3C190.3,370.1,189.8,372.1,190.1,374.2z"/>
	<path class="st12" d="M167.9,376.1c-2.7-0.3-5.9,1.5-7.8-1.9c0-1.9,0.5-3.6,2.4-4.5c1.2,0.6,1.6,2.9,3.4,2.1c1.7-0.7,0.8-2.6,1-3.9
		c0.2-1.1,0.1-2.3,0.1-3.4c0.8,0.4,1.7,0.8,2.5,1.2C170.1,369.3,169.6,372.7,167.9,376.1z"/>
	<path class="st11" d="M103,376.2c-1.9-3.2-1.5-6.3,0.2-10.3c1.1,2.4,0.9,4.1,1,5.8c0,0.9-0.2,2.1,1.1,2.3c1.1,0.2,2-0.4,2.4-1.4
		c1-2.3,1.8-4.6,1.9-7.1c0.7-0.8,1.6-1.6,2.1,0.1C113.4,371.7,109.5,376.4,103,376.2z"/>
	<path class="st13" d="M167.9,376.1c1.7-3.3,2.2-6.8,1.6-10.4c0.9-0.4,1.8-0.9,2.7-1.3c0.1,0.6,0.2,1.3,0.3,1.9
		c0.3,1.7,0.6,3.3,0.9,5c0.1,0.7,0.1,1.3,0.2,2c-0.2,1.3-0.3,2.7-0.5,4c-0.8,0.4-1.7,0.8-2.5,1.2
		C169.3,377.9,168.5,377.1,167.9,376.1z"/>
	<path class="st11" d="M173.3,371.2c-0.3-1.7-0.6-3.3-0.9-5c0.7-0.2,1.4-0.4,2.1-0.5c0.2,1.3,0.5,2.6,0.7,4c1.7,0.8,2-2.7,3.5-1.4
		c1.6,1.4-0.3,2.7-0.8,3.9c-1,2.2-2.3,4.3-3.5,6.4c-0.4-0.4-0.9-0.9-1.3-1.3c0.2-1.3,0.3-2.7,0.5-4
		C174,372.5,173.9,371.8,173.3,371.2z"/>
	<path class="st12" d="M193.2,368.4c0.3-0.9,0.5-2,1-2.8c1.2-2.1,3.5-1.8,4.7-0.7c1.6,1.5-0.8,1.8-1.6,2.5c-2,1.7-1.1,4.4-2,6.5
		c-1,2.3-1.8,3.1-2.6,0C192.7,372,192.9,370.2,193.2,368.4z"/>
	<path class="st13" d="M162.5,369.6c-1.9,0.9-2.4,2.6-2.4,4.5c-0.8,0-1.6,0-2.4,0c1.6-2.9-0.3-6,0.2-8.9l-0.1,0.1
		c0.6-0.3,1.2-0.7,1.8-1c1.2,0.1,2.5,0.2,3.7,0.3c-0.8,0.7-1.6,1.4-1.5,2.6C162,368,163.1,368.6,162.5,369.6z"/>
	<path class="st15" d="M183.4,365.8c1,2,4.2,0.1,4.7,2.4c0.2,1.2,0.4,3.2-0.9,4c-1.6,1.1-2.9-0.7-4.4-1.2
		C183.8,369.4,181.4,367.4,183.4,365.8z"/>
	<path class="st14" d="M99.9,364.2c-1.3,3.6-5.5,2.5-8,4.7c-1.1,1-1.6-1.4-0.6-2.8C93.6,363,97,364.7,99.9,364.2z"/>
	<path class="st11" d="M91,375.2c0-0.8-0.3-1.8,0.9-1.9c0.5,0,1.1,0.7,1.7,0.7c4.4,0.3,4.4,0.3,4.4,5.2v0.1
		c-0.7,0.1-1.5,0.2-2.2,0.3c-0.1-0.5-0.1-0.9-0.2-1.4c0.7-1.9-0.2-2.1-1.8-1.8C92.9,376,92,375.6,91,375.2z"/>
	<path class="st15" d="M162.5,369.6c0.6-1-0.5-1.6-0.5-2.4c1.8-0.1,2.9-0.9,2.9-2.8c0.7-0.4,1.4-0.4,2.1,0.1c0,1.1,0.1,2.3-0.1,3.4
		c-0.2,1.4,0.6,3.2-1,3.9C164.1,372.5,163.7,370.2,162.5,369.6z"/>
	<path class="st13" d="M158,365.2c-0.6,0.2-1.3,0.4-1.9,0.6c-1.5,0.6-3.4,1.7-4-0.7c-0.5-1.9,0.9-3.2,3-2.8c2,0.4,1.9-0.6,1.6-1.9
		c2.2-0.1,2.8,1.4,3,3.2C158.5,363.5,158.2,364.4,158,365.2L158,365.2z"/>
	<path class="st13" d="M140,373.2c-0.5,0.1-1,0.1-1.4,0.3c-1.5,0.4-3.6,1.5-3.9-0.8c-0.3-2.1,2.1-1.1,3.4-1.4
		c0.9-0.2,1.9-0.2,2.9-0.2C140.9,371.9,140.7,372.7,140,373.2z"/>
	<path class="st8" d="M193.2,368.4c-0.2,1.8-0.4,3.6-0.7,5.4c-0.8,0.2-1.6,0.3-2.4,0.5c-0.3-2.1,0.2-4.2,1-6.1
		C191.8,368.2,192.5,368.3,193.2,368.4z"/>
	<path class="st14" d="M173,377.2c0.4,0.4,0.9,0.9,1.3,1.3c-0.5,1.4-1.6,2-3.1,1.7c-1.2-0.2-0.9-1.1-0.8-1.9
		C171.3,378,172.1,377.6,173,377.2z"/>
	<path class="st11" d="M147.9,372.2c1.2,0.5,1.6,2.2,3.3,1.9c1.2-0.2,2.4-0.3,3.6-0.5c0.1,0.6,0.2,1.3,0.3,1.9l-0.3,0.2l-0.3-0.1
		c-2.2-0.1-4.4-0.2-6.6-0.3c-0.2-0.2-0.3-0.4-0.2-0.6c0-0.5,0-1.1,0.1-1.6C147.7,372.7,147.7,372.4,147.9,372.2z"/>
	<path class="st12" d="M164.9,364.4c0,1.9-1.1,2.7-2.9,2.8c-0.1-1.2,0.7-1.9,1.5-2.6C163.9,364.5,164.4,364.4,164.9,364.4z"/>
	<path class="st14" d="M147.9,375.2c2.2,0.1,4.4,0.2,6.6,0.3C152.3,376.1,150,376.8,147.9,375.2z"/>
	<path class="st14" d="M174.5,365.7c-0.7,0.2-1.4,0.4-2.1,0.5c-0.1-0.6-0.2-1.3-0.3-1.9C173.2,364.3,174.1,364.6,174.5,365.7z"/>
	<path class="st13" d="M95.8,379.6c0.7-0.1,1.5-0.2,2.2-0.3C97.5,381.1,96.8,381.4,95.8,379.6z"/>
	<path class="st13" d="M93.9,376.5c1.6-0.4,2.5-0.1,1.8,1.8C94.6,378.1,94.1,377.5,93.9,376.5z"/>
	<path class="st14" d="M157.9,365.2c0.3-0.9,0.6-1.8,1.8-1.7c-0.1,0.2-0.1,0.5,0,0.7C159.1,364.6,158.5,364.9,157.9,365.2z"/>
	<path class="st14" d="M147.8,372.9c0,0.5,0,1.1-0.1,1.6C147.7,374,147.8,373.5,147.8,372.9z"/>
	<path class="st13" d="M154.8,373.6c-1.2,0.2-2.4,0.3-3.6,0.5c-0.5-1.8-1.1-3.6,0.9-4.8c0.8-0.5,1.9-0.3,2.8,0.4
		C156.6,370.9,155.1,372.2,154.8,373.6z"/>
	<path class="st14" d="M173.3,371.2c0.6,0.6,0.7,1.3,0.2,2C173.4,372.5,173.4,371.8,173.3,371.2z"/>
</g>
<circle class="st16" cx="125" cy="92.5" r="23"/>
<g>
	<defs>
		<circle id="SVGID_1_" cx="125" cy="92.5" r="8.5"/>
	</defs>
	<clipPath id="SVGID_2_">
		<use xlink:href="#SVGID_1_"  style="overflow:visible;"/>
	</clipPath>
	<rect x="111.5" y="79" class="st17" width="27" height="27"/>
</g>
<g>
	<path class="st18" d="M117,56c0-0.5,0.4-0.8,0.9-0.8s0.9,0.3,0.9,0.8c0,0.5-0.4,0.8-0.9,0.8S117,56.4,117,56z M117.2,58.3h1.2v7.3
		h-1.2V58.3z"/>
	<path class="st18" d="M123.9,58.1c1,0,1.6,0.4,2.1,0.9l-0.6,0.8c-0.4-0.4-0.9-0.6-1.5-0.6c-1.3,0-2.3,1.1-2.3,2.8
		c0,1.7,0.9,2.8,2.2,2.8c0.7,0,1.3-0.3,1.7-0.7l0.6,0.8c-0.7,0.6-1.5,0.9-2.4,0.9c-1.9,0-3.4-1.4-3.4-3.8
		C120.4,59.5,122,58.1,123.9,58.1z"/>
	<path class="st18" d="M127.5,56c0-0.5,0.4-0.8,0.9-0.8s0.9,0.3,0.9,0.8c0,0.5-0.4,0.8-0.9,0.8S127.5,56.4,127.5,56z M127.8,58.3
		h1.2v7.3h-1.2V58.3z"/>
	<path class="st18" d="M135.4,63.8c0.5,0,0.9,0.4,0.9,1c0,0.5-0.4,0.9-0.9,0.9c-0.5,0-0.9-0.4-0.9-0.9
		C134.5,64.2,134.9,63.8,135.4,63.8z M134.8,56.9l0-1.4h1.2l0,1.4l-0.2,5.7H135L134.8,56.9z"/>
</g>
</svg>
